<svg viewBox="0 0 512 512" xmlns="http://www.w3.org/2000/svg" xmlns:xlink="http://www.w3.org/1999/xlink"><path d="M441.87 197.57a7.5 7.5 0 0 0 7.5-7.5v-41.15a7.5 7.5 0 0 0-7.5-7.5h-53.11V86.292C388.76 38.71 350.05 0 302.468 0c-16.637 0-32.59 4.707-46.475 13.633C242.57 5.02 226.631 0 209.533 0c-47.582 0-86.293 38.71-86.293 86.292v55.127H70.13a7.5 7.5 0 0 0-7.5 7.5v49.72a7.5 7.5 0 0 0 15 0v-42.22h251.68V389c0 4.142 3.357 7.5 7.5 7.5s7.5-3.358 7.5-7.5V156.42h38.542v301.07l-38.542 31.27V424c0-4.142-3.357-7.5-7.5-7.5s-7.5 3.358-7.5 7.5v73H77.63V233.64a7.5 7.5 0 0 0-15 0V504.5a7.5 7.5 0 0 0 7.5 7.5h371.74a7.5 7.5 0 0 0 7.5-7.5V225.07c0-4.142-3.357-7.5-7.5-7.5s-7.5 3.358-7.5 7.5v263.297l-36.519-30.79V156.42h36.519v33.65a7.5 7.5 0 0 0 7.5 7.5m-51.61 273.225L421.339 497h-63.378zM302.468 15c39.311 0 71.292 31.981 71.292 71.292v55.127h-17.325V86.292c0-29.758-24.209-53.967-53.967-53.967a53.7 53.7 0 0 0-22.118 4.746 87 87 0 0 0-11.673-13.527C279.015 17.939 290.527 15 302.468 15M138.24 86.292C138.24 46.981 170.222 15 209.533 15s71.292 31.981 71.292 71.292v55.127H263.5V86.292c0-29.758-24.209-53.967-53.967-53.967s-53.968 24.209-53.968 53.967v55.127H138.24zm77.935 55.128h-45.61V86.292c0-21.487 17.481-38.967 38.968-38.967a38.8 38.8 0 0 1 14.584 2.842 86.2 86.2 0 0 0-7.942 36.125zm15-55.128a71.2 71.2 0 0 1 5.649-27.78c7.2 7.074 11.676 16.912 11.676 27.78v55.127h-17.325zm64.65 55.128V86.292a85.7 85.7 0 0 0-7.947-36.106 38.8 38.8 0 0 1 14.589-2.861c21.486 0 38.967 17.48 38.967 38.967v55.127z"/></svg>