<svg viewBox="0 0 512.499 512.499" xmlns="http://www.w3.org/2000/svg" xmlns:xlink="http://www.w3.org/1999/xlink"><path d="M475.921 100.499c-23.224-24.343-54.734-37.75-88.727-37.75-4.704 0-9.417.263-14.065.781a142.3 142.3 0 0 0-16.171-20.435C330.599 15.466 294.833.25 256.25.25c-25.721 0-50.708 6.902-72.261 19.961a7.5 7.5 0 0 0 7.773 12.829c19.208-11.639 41.508-17.79 64.488-17.79 72.544 0 127.25 58.953 127.25 137.13 0 2.249-.045 4.531-.134 6.784a7.501 7.501 0 0 0 14.989.591c.097-2.449.146-4.93.146-7.375 0-26.868-5.933-52.293-17.093-74.463 1.927-.099 3.857-.167 5.789-.167 62.884 0 110.304 51.134 110.304 118.942 0 34.136-11.967 68.496-32.833 94.27-21.206 26.193-48.719 40.619-77.471 40.619-23.661 0-46.855-10.006-66.159-28.355 7.884-5.054 15.465-11.061 22.668-17.993 23.924-23.023 41.583-54.763 49.722-89.372a7.5 7.5 0 0 0-14.601-3.435c-15.72 66.823-67.269 115.324-122.577 115.324-35.562-.09-66.601-18.661-89.453-46.861C142.776 231.219 129 191.669 129 152.38c0-38.267 13.126-73.239 36.96-98.474a7.501 7.501 0 0 0-10.906-10.3 142.3 142.3 0 0 0-15.69 19.923c-4.646-.517-9.358-.78-14.061-.78-33.992 0-65.503 13.406-88.727 37.75C12.99 125.223 0 159.385 0 196.692c0 36.747 12.736 73.984 34.943 102.165a7.5 7.5 0 0 0 11.782-9.284C26.563 263.988 15 230.134 15 196.692 15 128.884 62.42 77.75 125.304 77.75c1.933 0 3.865.068 5.794.168C119.938 100.093 114 125.526 114 152.38c0 42.665 14.994 85.654 41.138 117.947 10.889 13.45 23.134 24.487 36.31 32.913-19.302 18.34-42.489 28.341-66.144 28.341-19.104 0-38.1-6.545-54.935-18.928a7.5 7.5 0 0 0-10.485 1.598 7.5 7.5 0 0 0 1.598 10.485c11.429 8.406 23.775 14.461 36.545 18.039L87.955 372.99c-1.698 4.666 2.153 10.008 7.115 9.872h23.068c1.19 13.347 5.463 21.295 9.311 28.414 4.207 7.783 7.84 14.504 7.84 28.78s-3.633 20.998-7.84 28.781c-4.521 8.363-9.645 17.843-9.645 35.914a7.5 7.5 0 0 0 15 0c0-14.276 3.633-20.998 7.84-28.781 4.521-8.363 9.645-17.843 9.645-35.914s-5.124-27.55-9.645-35.913c-3.392-6.276-6.409-11.867-7.451-21.281h22.345c4.963.136 8.813-5.206 7.115-9.872l-10.066-30.199c19.045-5.335 37.028-16.204 52.496-31.919a121.3 121.3 0 0 0 21.327 7.929l-11.859 35.577a7.5 7.5 0 0 0 7.115 9.872h26.747c-1.078 11.681-4.682 18.387-8.762 25.934-5.11 9.454-10.902 20.169-10.902 40.566s5.792 31.112 10.902 40.566c4.882 9.031 9.098 16.831 9.098 33.434a7.5 7.5 0 0 0 15 0c0-20.397-5.792-31.112-10.902-40.566-4.882-9.031-9.098-16.831-9.098-33.434s4.216-24.402 9.098-33.434c4.444-8.221 9.398-17.402 10.616-33.066h27.369c4.963.136 8.813-5.206 7.115-9.872l-11.855-35.564c7.262-1.944 14.382-4.6 21.314-7.951 15.47 15.721 33.456 26.593 52.504 31.928l-10.066 30.199c-1.698 4.666 2.153 10.008 7.115 9.872h22.345c-1.042 9.413-4.058 15.005-7.451 21.281-4.521 8.363-9.645 17.842-9.645 35.913s5.124 27.55 9.645 35.914c4.207 7.783 7.84 14.504 7.84 28.781a7.5 7.5 0 0 0 15 0c0-18.071-5.124-27.55-9.645-35.914-4.207-7.783-7.84-14.504-7.84-28.781s3.633-20.998 7.84-28.78c3.848-7.119 8.121-15.067 9.311-28.414h23.068c4.963.136 8.813-5.206 7.115-9.872l-10.05-30.15c23.079-6.414 44.422-20.937 61.83-42.44 22.99-28.396 36.175-66.197 36.175-103.708.002-37.307-12.988-71.469-36.576-96.193M145.133 367.861h-39.657l7.356-22.068c4.138.522 8.301.787 12.473.787 4.179 0 8.34-.273 12.471-.793zm135.294-18.611h-48.355l9.165-27.495c4.96.654 9.968.995 15.013.995 5.047 0 10.057-.332 15.016-.984zm126.596 18.611h-39.657l7.358-22.074c4.131.52 8.292.793 12.471.793 4.19 0 8.353-.26 12.478-.771z"/></svg>