<svg viewBox="0 0 512 512" xmlns="http://www.w3.org/2000/svg" xmlns:xlink="http://www.w3.org/1999/xlink"><path class="st0" d="M462 300.6c-3.1-1.2-6.6.3-7.8 3.3-1.2 3.1.3 6.6 3.3 7.8 26.6 10.6 41.2 22.9 41.2 34.5 0 15.3-25.6 31.5-68.5 43.6-46.4 13-108.3 20.2-174.2 20.2s-127.8-7.2-174.3-20.2c-40.7-11.4-65.8-26.7-68.3-41.2v-4.8c2.6-14.8 28.3-30.1 69.9-41.6 3.2-.9 5.1-4.2 4.2-7.4s-4.2-5.1-7.4-4.2c-65.2 18-78.9 40.1-78.9 55.6 0 1.1.1 2.1.2 3.2l-.2 76.4c0 16.9 15.7 32 46.6 44.7 27.9 11.5 66.6 20.4 112 25.7h.7c3 0 5.6-2.3 6-5.3.4-3.3-2-6.3-5.3-6.7-101.7-11.9-148-38.6-148-58.5l.2-55.3c12.5 11.8 34.4 22.2 65.1 30.8C126 414.6 189 422 256 422s130-7.3 177.5-20.7c30.9-8.7 52.8-19.1 65.2-31v55.5c0 15.3-25.6 31.5-68.5 43.6-46.5 13-108.4 20.2-174.3 20.2-27.2 0-54-1.2-79.5-3.7-3.3-.3-6.2 2.1-6.5 5.4s2.1 6.2 5.4 6.5c25.9 2.5 53.1 3.7 80.7 3.7 67 0 130-7.3 177.5-20.7 50.5-14.2 77.2-33.2 77.2-55.1V346c.1-17.2-16.3-32.5-48.7-45.4"/><path class="st0" d="M444.8 306.7c2.5 0 4.9-1.6 5.7-4.1 1-3.1-.7-6.5-3.8-7.6-47.9-15.7-117.4-24.7-190.7-24.7-58.1 0-114.7 5.7-159.5 16.1-3.2.7-5.2 4-4.5 7.2s4 5.2 7.2 4.5c43.9-10.2 99.6-15.8 156.8-15.8 72 0 140.2 8.8 187 24.1q.9.3 1.8.3"/><path class="st0" d="M132.3 321.7c.3 0 .6 0 1-.1 15-2.4 31-4.4 47.5-5.9 3.3-.3 5.7-3.2 5.4-6.5s-3.2-5.7-6.5-5.4c-16.8 1.5-33 3.5-48.3 6-3.3.5-5.5 3.6-5 6.9.4 2.9 3 5 5.9 5"/><path class="st0" d="M103 327.3c4.7-1 9.6-2.1 14.6-3 3.3-.6 5.4-3.8 4.8-7-.6-3.3-3.8-5.4-7-4.8-5.1 1-10.1 2-14.9 3.1-3.2.7-5.3 3.9-4.6 7.2.6 2.8 3.1 4.7 5.9 4.7.3 0 .7-.1 1.2-.2"/><path class="st0" d="M105.3 376.4C148.7 367 200.8 362 256 362s107.3 5 150.8 14.4c.4.1.9.1 1.3.1 2.8 0 5.2-1.9 5.9-4.7.7-3.2-1.4-6.4-4.6-7.1C365.1 355.1 312 350 256 350s-109 5.1-153.3 14.7c-3.2.7-5.3 3.9-4.6 7.1.7 3.3 3.9 5.3 7.2 4.6"/><path class="st0" d="M233.2 461.8c3.3 0 6-2.7 6-6s-2.7-6-6-6h-14.7c-3.3 0-6 2.7-6 6s2.7 6 6 6z"/><path class="st0" d="M263.3 461.8c3.3 0 6-2.7 6-6s-2.7-6-6-6h-14.7c-3.3 0-6 2.7-6 6s2.7 6 6 6z"/><path class="st0" d="M294.3 461.8c3.3 0 6-2.7 6-6s-2.7-6-6-6h-14.7c-3.3 0-6 2.7-6 6s2.7 6 6 6z"/><path class="st0" d="M271.9 64.4c39.2-18.1 76-31.1 106.4-37.5l15.5-2.8c28.3-4.1 47-.8 52.8 9.3 7.6 13.2-6.4 40.1-37.5 72-33.8 34.5-83.8 71.6-140.9 104.6-20.6 11.9-41.5 22.9-62.1 32.6-3 1.4-4.3 5-2.9 8 1 2.2 3.2 3.4 5.4 3.4.9 0 1.7-.2 2.6-.6 20.8-9.8 42-21 62.9-33 58-33.5 108.9-71.4 143.4-106.7 22.4-22.9 36.2-43 41-59.4l27.7 48.1c6 10.4-1.6 29.8-20.8 53.4-2.1 2.6-1.7 6.3.9 8.4 1.1.9 2.5 1.4 3.8 1.4 1.7 0 3.5-.8 4.7-2.2 23.2-28.4 30.8-51.6 21.9-67l-39.8-69c-8.7-15-30.5-20.1-65-15.1L376 15.1h-.2c-31.3 6.6-69 19.9-109 38.4-3 1.4-4.3 5-2.9 8s5 4.3 8 2.9"/><path class="st0" d="m16.7 283.4 3.5 6c1.1 1.9 3.1 3 5.2 3 1 0 2-.3 3-.8 2.9-1.6 3.9-5.3 2.2-8.2l-5.5-9.6c-5.2-14.1 9.4-40.2 39.7-70.9l11.8-11.5c33-30.8 78.4-63.4 127.9-92 18.1-10.4 36.4-20.2 54.4-28.9 3-1.4 4.2-5 2.8-8s-5-4.2-8-2.8c-18.3 8.9-36.9 18.7-55.2 29.3-50.3 29-96.5 62.3-130.1 93.7l-12 11.7-.1.1C8.7 242.7 8 268.7 15.7 282.1c.3.5.6.9 1 1.3"/><path class="st0" d="M149 156.2c-13.8 9.7-26.8 19.6-38.9 29.3-2.6 2.1-3 5.9-.9 8.4 1.2 1.5 2.9 2.2 4.7 2.2 1.3 0 2.7-.4 3.8-1.3 11.8-9.6 24.6-19.3 38.2-28.8 2.7-1.9 3.4-5.6 1.5-8.4-2-2.7-5.7-3.3-8.4-1.4"/><path class="st0" d="M105.5 205c2.5-2.2 2.8-6 .6-8.5s-6-2.8-8.5-.6c-3.9 3.4-7.8 6.8-11.4 10.1-2.4 2.2-2.6 6-.4 8.5 1.2 1.3 2.8 1.9 4.4 1.9 1.4 0 2.9-.5 4.1-1.6 3.6-3.1 7.4-6.4 11.2-9.8"/><path class="st0" d="M139.2 238.7c1.3 0 2.7-.4 3.8-1.3 29.1-23.6 64.1-47.5 101.3-68.9 47.8-27.6 95.4-49.3 137.8-62.9 3.2-1 4.9-4.4 3.9-7.5-1-3.2-4.4-4.9-7.5-3.9-43.2 13.8-91.6 35.9-140.1 63.9-37.7 21.8-73.3 46-102.8 70-2.6 2.1-3 5.9-.9 8.4 1 1.5 2.8 2.2 4.5 2.2"/><path class="st0" d="M123.4 238.1c-3.6 3.1-7.2 6.3-10.6 9.4-2.5 2.2-2.6 6-.4 8.5 1.2 1.3 2.8 2 4.4 2 1.4 0 2.9-.5 4-1.6 3.3-3 6.8-6.1 10.4-9.1 2.5-2.2 2.8-5.9.6-8.5-2-2.6-5.8-2.9-8.4-.7"/><path class="st0" d="M464.4 175.3c2.2-2.4 2.1-6.2-.4-8.5-2.4-2.2-6.2-2.1-8.5.4-23.5 25.6-57.2 53.4-97.3 80.4-2.7 1.9-3.5 5.6-1.6 8.3 1.2 1.7 3.1 2.7 5 2.7 1.2 0 2.3-.3 3.3-1 41-27.5 75.4-56 99.5-82.3"/><path class="st0" d="M390.2 189.5c1.4 0 2.8-.5 3.9-1.5l44.7-38.7c2.5-2.2 2.8-6 .6-8.5s-6-2.8-8.5-.6L386.3 179c-2.5 2.2-2.8 6-.6 8.5 1.2 1.3 2.9 2 4.5 2"/><path class="st0" d="M366.2 207.8c1.3 0 2.6-.4 3.7-1.3l12-9.3c2.6-2 3.1-5.8 1.1-8.4s-5.8-3.1-8.4-1.1l-12 9.3c-2.6 2-3.1 5.8-1.1 8.4 1.2 1.6 2.9 2.4 4.7 2.4"/><path class="st0" d="M341.2 224.8c1.2 0 2.4-.4 3.5-1.1l12.7-9c2.7-1.9 3.3-5.7 1.4-8.4s-5.7-3.3-8.4-1.4l-12.7 9c-2.7 1.9-3.3 5.7-1.4 8.4 1.2 1.7 3.1 2.5 4.9 2.5"/></svg>