<svg viewBox="0 0 512.001 512.001" xmlns="http://www.w3.org/2000/svg" xmlns:xlink="http://www.w3.org/1999/xlink"><path d="M508.691 102.645c-4.69-6.632-12.967-9.211-20.591-6.418l-125.493 45.947c-31.312-30.686-88.626-78.495-143.921-81.112-27.261-1.287-54.876 6.956-84.395 25.211-28.489 17.618-54.426 42.297-71.458 59.328-31.041 31.042-51.568 70.202-59.359 113.244-7.611 42.048-2.662 84.908 14.313 123.946a7.614 7.614 0 0 0 9.242 4.236c12.252-3.805 25.612-.952 35.266 7.074l-21.249 16.833a7.613 7.613 0 0 0-1.476 10.382 216.6 216.6 0 0 0 23.263 27.521 7.6 7.6 0 0 0 5.388 2.23 7.6 7.6 0 0 0 4.252-1.301l6.683-4.505a1050.6 1050.6 0 0 0 158.212-130.87 1045 1045 0 0 0 37.257-39.57l51.126-18.24a8 8 0 0 0 .247-.093c70.605-27.992 133.5-73.731 181.883-132.272 5.179-6.264 5.504-14.933.81-21.571M155.532 368.902c-6.927-6.98-13.551-14.036-19.682-21.002a7.615 7.615 0 0 0-11.431 10.062c6.034 6.854 12.526 13.785 19.301 20.648a1043 1043 0 0 1-73.074 54.025l-1.397.941A202 202 0 0 1 56.273 418.3l22.069-17.483a7.615 7.615 0 0 0 1.241-10.696c-11.988-15.131-31.511-22.406-50.266-19.256-13.791-34.674-17.55-72.325-10.856-109.306 5.296-29.255 16.934-56.577 34.096-80.432-.74 6.078-1.15 12.917-.981 20.476 1.232 54.914 31.844 105.185 57.309 137.688a7.6 7.6 0 0 0 5.999 2.919 7.614 7.614 0 0 0 5.988-12.31c-23.806-30.385-52.507-77.173-54.043-127.517-.908-29.705 8.244-46.961 8.436-47.315.112-.202.209-.407.302-.614a8 8 0 0 0 .6-.29c.089-.049 9.099-4.904 25.221-7.243 14.898-2.161 39.114-2.554 69.868 7.846.808.274 1.63.403 2.44.403a7.615 7.615 0 0 0 2.438-14.83c-32.173-10.88-58.205-11.189-76.585-8.569 12.817-11.373 27.453-23.084 42.751-32.544 26.818-16.583 51.572-24.091 75.666-22.951 51.059 2.416 107.126 50.695 132.894 75.719a1040 1040 0 0 1-51.54 70.23c-31.19-30.724-62.687-54.124-93.669-69.538a7.615 7.615 0 0 0-6.784 13.635c29.88 14.864 60.418 37.67 90.798 67.767a1024 1024 0 0 1-134.133 134.813m340.611-254.386c-46.726 56.535-107.458 100.715-175.635 127.768l-25.561 9.119a1050 1050 0 0 0 70.68-94.118l127.71-46.757c1.495-.548 2.414.194 2.922.912.51.721.905 1.841-.116 3.076"/></svg>