<svg viewBox="0 0 748 748.74951" xmlns="http://www.w3.org/2000/svg" xmlns:xlink="http://www.w3.org/1999/xlink"><path d="m565.594 215.797 24.957-24.953 17.648 17.644-24.957 24.957Zm0 0"/><path d="m515.68 165.879 24.953-24.953 17.648 17.648-24.953 24.953Zm0 0"/><path d="M161.094 727.45c28.398 28.398 74.445 28.398 102.855 0l369.207-369.208c4.867-4.879 4.867-12.77 0-17.648l-28.613-28.614 140.926-140.925c4.87-4.875 4.87-12.774 0-17.645L595.715 3.656c-4.871-4.875-12.77-4.875-17.645 0L437.145 144.582l-28.614-28.613c-4.875-4.871-12.773-4.871-17.648 0L21.676 485.176c-28.403 28.406-28.403 74.457 0 102.855Zm425.8-697.321L719 162.23l-19.793 19.793L567.105 49.918Zm-37.44 37.437 132.105 132.102-94.664 94.668L454.789 162.23ZM39.32 502.824l360.387-360.383 206.977 206.98L246.3 709.806c-18.656 18.652-48.906 18.652-67.563 0L39.32 570.387c-18.652-18.657-18.652-48.903 0-67.563m0 0"/><path d="m353.438 228.273 24.953-24.949 17.652 17.649-24.957 24.949Zm0 0"/><path d="m253.598 328.117 74.879-74.87 17.644 17.648-74.875 74.875Zm0 0"/></svg>