<svg viewBox="0 0 512 512" xmlns="http://www.w3.org/2000/svg" xmlns:xlink="http://www.w3.org/1999/xlink"><path d="M337 408.5c11.4-12.7 20.3-27.1 26.5-42.9l-14-5.5c-6.5 16.4-16.1 31-28.7 43.6-50.2 50.2-131.9 50.2-182.1 0s-50.2-131.9 0-182.1 131.9-50.2 182.1 0c16 16 27.5 35.9 33.3 57.6 5.6 21.1 5.8 43.4.6 64.6l14.6 3.6c5.9-23.6 5.7-48.6-.6-72.1-4.7-17.4-12.6-33.8-23.3-48.2 3.2-1.1 6.2-3 8.8-5.5 7.3-7.3 8.8-18.3 4.4-27.1l13.8-13.8c8.8 4.4 19.8 2.9 27.1-4.4s8.8-18.3 4.4-27.1l13.4-13.4c15.4 10.4 36.5 8.8 50.1-4.8 15.4-15.4 15.4-40.5 0-56s-40.5-15.4-56 0c-13.6 13.6-15.2 34.8-4.8 50.1l-13.4 13.4c-8.8-4.4-19.8-2.9-27.1 4.4s-8.8 18.3-4.4 27.1l-13.8 13.8c-8.8-4.4-19.8-2.9-27.1 4.4-2.6 2.6-4.4 5.6-5.5 8.7C261.2 157 185 159.8 134 205.5l-.2-.2-28.3 28.3c-56.1 56.1-56.1 147.3 0 203.3s147.3 56.1 203.3 0l28.3-28.3zm85.1-322.9c9.6-9.6 25.1-9.6 34.7 0s9.6 25.1 0 34.7-25.1 9.6-34.7 0-9.5-25.1 0-34.7m-33.3 68c3.3 3.3 3.3 8.7 0 12s-8.7 3.3-12 0-3.3-8.7 0-12 8.7-3.3 12 0M331.5 199c3.3-3.3 8.7-3.3 12 0s3.3 8.7 0 12-8.7 3.3-12 0c-3.4-3.3-3.4-8.7 0-12M116.1 426.4c-38.3-38.3-47.4-95-27.2-141.9-9.1 45.6 4 94.7 39.3 129.9s84.4 48.3 129.9 39.3c-47.1 20.1-103.7 11-142-27.3"/><path d="m206.8 279 11.3 11.3-10.6 10.7-11.3-11.3z"/><path d="m229.4 301.7 11.3 11.3-10.6 10.6-11.3-11.3z"/><path d="m252.1 324.4 11.3 11.3-10.6 10.6-11.3-11.3z"/><path d="M167.1 375.4c-8.1-8.1-14.5-17.6-19-28.1l-13.8 5.9c5.2 12.3 12.7 23.3 22.2 32.8 40.4 40.4 106.2 40.4 146.7 0s40.4-106.2 0-146.7-106.2-40.4-146.7 0c-25 25-35.5 60.6-28 95.3l14.7-3.2c-3.4-15.9-2.4-32.1 2.6-46.9L258 396.7c-31 10.3-66.4 3.2-90.9-21.3M292.5 250c24.5 24.5 31.6 59.9 21.4 90.8L201.7 228.6c30.8-10.3 66.3-3.1 90.8 21.4m-140.3 19.8c4-7.2 9-13.8 14.9-19.8 6-6 12.7-11 19.8-14.9l120.5 120.5c-3.9 7.1-8.9 13.8-14.9 19.8s-12.7 11-19.8 14.9z"/></svg>