<svg viewBox="0 0 512 512" xmlns="http://www.w3.org/2000/svg" xmlns:xlink="http://www.w3.org/1999/xlink"><path d="m346.6 121.9-6.7-6.7c-2.8-2.8-7.2-2.8-10 0s-2.8 7.2 0 10l6.7 6.7c2.8 2.8 7.2 2.8 10 0 2.8-2.7 2.8-7.2 0-10"/><path d="M224 236.2c-2.8-2.8-7.2-2.8-10 0l-5.8 5.8c-2.8 2.8-2.8 7.2 0 10s7.2 2.8 10 0l5.8-5.8c2.7-2.7 2.7-7.2 0-10"/><path d="M203.1 257.1c-2.8-2.8-7.2-2.8-10 0l-82.6 82.6c-2.8 2.8-2.8 7.2 0 10s7.2 2.8 10 0l82.6-82.6c2.8-2.7 2.8-7.2 0-10"/><path d="m477 216.7-32-32c24.8-1 44-21.9 43-46.7-.5-11.3-5.1-22-13.1-29.9-15.4-15.2-39.4-17.4-57.2-5.2l-10.5-10.5c5.2 2.1 10.8 3.1 16.4 3.1 22.5 0 43.1-18.1 45.9-40.3l7.6-48.3c.4-2.4-.4-4.8-2.1-6.5s-4.1-2.4-6.4-2.1l-48.9 7.5C397.3 8.7 379 29.1 379 51.4c0 5.4 1 10.8 3 15.9l-4.3-4.3c-12.6-12.6-33.2-13-45.8-.4L35.7 358.8c-15.6 15.4-15.7 40.5-.3 56.1l87.3 87.3c15.6 15.5 40.7 15.4 56.2-.2l249.7-249.7c2.3-2.3 3.3-5.1 1.4-8.5l26.5-26.5 9.9 9.9c2.9 2.9 7.6 2.9 10.5 0 3-2.9 3-7.6.1-10.5m-31-9.9-26.4 26.4-31.6-31.6 26.4-26.4zm18.3-88.1c11.7 11.7 11.7 30.7 0 42.4-10.4 10.4-26.9 11.7-38.9 3l21.6-21.6c2.8-2.6 3-7 .3-9.8l-.3-.3-18.7-18.7c11.9-6.5 26.5-4.5 36 5M394 51.4c0-14.6 12.9-28.9 27.7-30.7h.2l38.9-6-6 38.4v.2c-1.8 14.6-16.4 27.4-31.2 27.4-7.9 0-15.5-3.1-21.1-8.7-5.5-5.5-8.6-12.9-8.5-20.6m-51.5 21.7c6.8-6.8 17.9-6.3 24.7.4l63.9 63.9-53.6 53.6-76.5-76.4zM168.4 491.5c-9.6 9.7-25.3 9.8-35 .2L46 404.4c-9.6-9.7-9.5-25.4.2-35l.1-.1 181-181 18 18c2.9 2.9 7.6 2.9 10.5 0s2.9-7.6 0-10.5l-18-18 52.7-52.7 57.1 57.1-52.7 52.8-19.8-19.8c-2.9-2.9-7.6-2.9-10.5 0s-2.9 7.6 0 10.5l19.8 19.8-167 167c-2.9 2.9-2.9 7.6 0 10.5s7.6 2.9 10.5 0l167-167 54.5 54.5zM359.9 300l-54.5-54.5 52.7-52.7 54.5 54.5z"/></svg>