<svg viewBox="0 0 40 40" xmlns="http://www.w3.org/2000/svg"><g><path d="M20 39.667a19.667 19.667 0 0 0 19.66-19.16 20 20 0 0 0 .007-.506A19.667 19.667 0 0 0 20.507.34 20 20 0 0 0 20 .334 19.667 19.667 0 0 0 .34 19.493 20 20 0 0 0 .333 20a19.667 19.667 0 0 0 19.16 19.66 20 20 0 0 0 .507.007m0-2a17.667 17.667 0 0 0 17.66-17.21 18 18 0 0 0 .007-.457 17.667 17.667 0 0 0-17.21-17.66A18 18 0 0 0 20 2.333a17.667 17.667 0 0 0-17.66 17.21 18 18 0 0 0-.007.456 17.667 17.667 0 0 0 17.21 17.661 18 18 0 0 0 .457.006Z" fill-rule="evenodd"/><path d="M20 23.667a7.667 7.667 0 0 0 0-15.333A7.667 7.667 0 0 0 12.333 16 7.667 7.667 0 0 0 20 23.667m0-2a5.667 5.667 0 0 0 0-11.333A5.667 5.667 0 0 0 14.334 16 5.667 5.667 0 0 0 20 21.667" fill-rule="evenodd"/><path d="M19.997 21.8a16.4 16.4 0 0 0-15.05 9.94 1 1 0 0 0 1.839.787A14.4 14.4 0 0 1 20 23.8h.003a14.28 14.28 0 0 1 12.776 7.78 14 14 0 0 1 .43.936 1 1 0 0 0 1.847-.766 16 16 0 0 0-.493-1.073l-.002-.005A16.28 16.28 0 0 0 19.997 21.8"/></g></svg>