<svg viewBox="0 0 100 50" xmlns="http://www.w3.org/2000/svg"><g><g><path d="m15.667 16.902-7.234 7.233v-7.233z"/><path d="M16.16 17.431v7.234H8.928z"/><path d="M7.234 16.902 0 24.135v-7.233z"/><path d="M7.728 17.431v7.234H.494z"/><path d="M15.667 33.098H8.433v-7.233z"/><path d="M16.16 25.37v7.234l-7.233-7.233z"/><path d="M7.234 25.37 0 32.605v-7.233z"/><path d="M7.728 25.865v7.233H.494z"/><path d="m15.667 33.804-7.234 7.233v-7.233z"/><path d="M16.16 34.333v7.234H8.928z"/><path d="m0 34.333 7.234 7.234H0z"/><path d="M7.728 33.804v7.233L.494 33.804z"/><path d="M8.433 50v-7.234L15.667 50z"/><path d="M16.16 42.272v7.234l-7.233-7.234z"/><path d="M0 42.272h7.234L0 49.506z"/><path d="m.494 50 7.234-7.234V50z"/><path d="m83.133 33.804-7.198 7.233v-7.233z"/><path d="m76.43 41.567 7.233-7.234v7.234z"/><path d="M75.23 33.804v7.233l-7.234-7.233z"/><path d="M15.667 7.728H8.433V.494z"/><path d="m16.867 8.963 7.233 7.233h-7.233z"/><path d="M33.027 8.963v7.233H25.83z"/><path d="M24.594 16.902v7.233l-7.198-7.233z"/><path d="M25.3 24.136v-7.234h7.233z"/><path d="M7.234 0 0 7.234V0z"/><path d="M7.728.494v7.234H.494z"/><path d="m15.667 8.469-7.234 7.233V8.47z"/><path d="M16.16 8.963v7.233H8.928z"/><path d="M7.728 8.469v7.233L.494 8.47z"/><path d="M7.234 16.196H0V8.963z"/><path d="m49.4 16.902-7.198 7.233v-7.233z"/><path d="M49.894 17.431v7.234h-7.198z"/><path d="m40.967 16.902-7.234 7.233v-7.233z"/><path d="M41.461 17.431v7.234h-7.198z"/><path d="M49.4 33.098h-7.198v-7.233z"/><path d="M49.894 25.37v7.234l-7.198-7.233z"/><path d="m40.967 25.37-7.234 7.234v-7.233z"/><path d="M41.461 25.865v7.233h-7.198z"/><path d="M42.202 33.804H49.4l-7.198 7.233z"/><path d="m42.696 41.567 7.198-7.234v7.234z"/><path d="M40.967 41.567h-7.234v-7.234z"/><path d="m41.461 41.037-7.198-7.233h7.198z"/><path d="M49.4 50h-7.198v-7.234z"/><path d="M66.267 33.098h-7.199v-7.233z"/><path d="M49.894 42.272v7.234l-7.198-7.234z"/><path d="m40.967 42.272-7.234 7.234v-7.234z"/><path d="M41.461 42.766V50h-7.198z"/><path d="m83.133 16.902-7.198 7.233v-7.233z"/><path d="M75.23 16.902v7.233l-7.234-7.233z"/><path d="M83.133 33.098h-7.198v-7.233z"/><path d="m74.7 25.37-7.198 7.234v-7.233z"/><path d="M75.23 25.865v7.233h-7.234z"/><path d="M58.363 0v7.234L51.128 0z"/><path d="M66.796 8.469v7.233L59.562 8.47z"/><path d="m57.834 8.469-7.199 7.233V8.47z"/><path d="M58.363 8.963v7.233h-7.234z"/><path d="m66.267 16.902-7.199 7.233v-7.233z"/><path d="M66.796 17.431v7.234h-7.234z"/><path d="m50.635 17.431 7.199 7.234h-7.199z"/><path d="M57.834 7.728h-7.199V.494z"/><path d="m50.635 34.333 7.199 7.234h-7.199z"/><path d="M66.267 16.196h-7.199V8.963z"/><path d="M66.796 25.37v7.234l-7.234-7.233z"/><path d="m57.834 25.37-7.199 7.234v-7.233z"/><path d="M58.363 25.865v7.233h-7.234z"/><path d="m66.267 42.272-7.199 7.234v-7.234z"/><path d="m58.363 24.136-7.234-7.234h7.233z"/><path d="m66.796 41.037-7.234-7.233h7.234z"/><path d="m58.363 41.037-7.234-7.233h7.233z"/><path d="M58.363 42.766V50h-7.234z"/><path d="M66.267 7.728h-7.199V.494z"/><path d="M100.035 50h-7.233v-7.234z"/><path d="M84.368 42.766 91.602 50h-7.234z"/><path d="m84.368 34.333 7.234 7.234h-7.234z"/><path d="M76.43 7.728 83.662.494v7.234z"/><path d="M83.133 16.196h-7.198V8.963z"/><path d="M49.4 7.728h-7.198V.494z"/><path d="M49.894 0v7.234L42.696 0z"/><path d="M41.461.494v7.234h-7.198z"/><path d="m49.4 8.469-7.198 7.233V8.47z"/><path d="M49.894 16.196h-7.198l7.198-7.233z"/><path d="M100.035 7.728h-7.233V.494z"/><path d="m84.368.494 7.234 7.234h-7.234z"/><path d="M92.096 0v7.234L84.862 0z"/><path d="M84.368 8.469h7.234l-7.234 7.233z"/><path d="M41.461 8.469v7.233L34.263 8.47z"/><path d="m33.733 8.963 7.234 7.233h-7.234z"/></g></g></svg>