<svg viewBox="0 0 512 512" xmlns="http://www.w3.org/2000/svg" xmlns:xlink="http://www.w3.org/1999/xlink"><path d="m131.146 403.858 12.91-9.379 12.909 9.379a12.45 12.45 0 0 0 14.672 0 12.45 12.45 0 0 0 4.533-13.953l-4.931-15.177 12.909-9.379a12.45 12.45 0 0 0 4.534-13.954 12.45 12.45 0 0 0-11.869-8.623h-15.958l-4.931-15.176v-.001a12.45 12.45 0 0 0-11.869-8.623 12.45 12.45 0 0 0-11.87 8.624l-4.931 15.176h-15.957a12.45 12.45 0 0 0-11.87 8.624 12.45 12.45 0 0 0 4.534 13.953l12.91 9.38-4.932 15.177a12.45 12.45 0 0 0 4.535 13.953 12.45 12.45 0 0 0 14.672-.001m10.513-71.627.002.007zm-10.827 25.541c4.38 0 8.23-2.799 9.583-6.963l3.641-11.203 3.64 11.202a10.05 10.05 0 0 0 9.583 6.964h11.78l-9.53 6.924a10.05 10.05 0 0 0-3.66 11.266l3.64 11.203-9.527-6.922a10.05 10.05 0 0 0-11.848-.002l-9.53 6.924 3.641-11.204a10.05 10.05 0 0 0-3.661-11.265l-9.53-6.924z"/><path d="M311.181 187.262h-30.609l-9.46-29.112c-2.167-6.67-8.099-10.979-15.111-10.979s-12.944 4.31-15.111 10.979l-9.46 29.112h-30.609c-7.013 0-12.945 4.31-15.111 10.979-2.167 6.67.099 13.643 5.772 17.764l24.764 17.992-9.459 29.112c-2.167 6.669.098 13.643 5.771 17.765 5.672 4.121 13.005 4.121 18.679 0L256 262.882l24.765 17.992c5.673 4.123 13.004 4.122 18.679 0s7.938-11.096 5.771-17.765l-9.459-29.112 24.764-17.991c5.674-4.122 7.939-11.095 5.772-17.765s-8.099-10.979-15.111-10.979m.522 16.608-26.621 19.342a11.81 11.81 0 0 0-4.301 13.237l10.168 31.295c.079.245.199.615-.323.994-.523.382-.838.151-1.045.001l-26.62-19.341a11.805 11.805 0 0 0-13.92-.001l-26.622 19.342c-.208.15-.522.382-1.045-.001-.522-.379-.402-.749-.323-.994l10.168-31.294a11.81 11.81 0 0 0-4.301-13.238l-26.621-19.343c-.208-.15-.522-.379-.323-.993s.589-.614.846-.614h32.906a11.81 11.81 0 0 0 11.26-8.182l10.169-31.296c.08-.244.199-.614.846-.614s.766.37.846.614l10.169 31.297a11.81 11.81 0 0 0 11.26 8.181h32.906c.257 0 .646 0 .846.614s-.117.843-.325.994"/><path d="m364.634 389.608 14.904 10.829-5.692 17.521a13.02 13.02 0 0 0 4.741 14.596 13.02 13.02 0 0 0 15.346 0l14.905-10.829 14.904 10.829a13.02 13.02 0 0 0 15.345 0 13.02 13.02 0 0 0 4.743-14.595l-5.692-17.521 14.902-10.828c4.591-3.334 6.497-9.199 4.744-14.595s-6.742-9.021-12.415-9.021h-18.424l-5.692-17.521v-.001a13.02 13.02 0 0 0-12.417-9.019 13.02 13.02 0 0 0-12.413 9.02l-5.693 17.521h-18.423a13.02 13.02 0 0 0-12.415 9.021 13.02 13.02 0 0 0 4.742 14.593m29.457-8.614c4.511 0 8.476-2.882 9.865-7.168l4.882-15.022 4.881 15.023a10.35 10.35 0 0 0 9.865 7.167h15.795l-12.782 9.286a10.35 10.35 0 0 0-3.764 11.596l4.881 15.022-12.779-9.284a10.35 10.35 0 0 0-12.194 0l-12.778 9.283 4.881-15.021a10.35 10.35 0 0 0-3.769-11.598l-12.778-9.284z"/><path d="M426.244 219.048c3.995 3.99 10.488 3.987 14.476-.002l68.282-68.282c1.934-1.935 2.998-4.505 2.998-7.239s-1.064-5.305-2.998-7.239l-82.343-82.343c-21.858-21.857-50.92-33.896-81.832-33.896H167.173c-30.912 0-59.974 12.038-81.832 33.896L2.998 136.285C1.064 138.22 0 140.79 0 143.524s1.064 5.305 2.998 7.239l68.282 68.282c3.989 3.989 10.483 3.991 14.479 0l29.085-29.087v104.014h-6.406c-40.821 0-74.032 33.211-74.032 74.032v43.759L8.644 434.516c-7.245 6.398-10.239 16.186-7.813 25.543 2.425 9.356 9.797 16.458 19.237 18.531 81.11 17.817 166.863 17.818 247.976 0 9.853-2.164 17.594-9.868 19.586-20.07h28.362l-1.559 17.822a11.57 11.57 0 0 0 2.986 8.796 11.56 11.56 0 0 0 8.503 3.741h165.834a11.56 11.56 0 0 0 8.503-3.741 11.56 11.56 0 0 0 2.986-8.796L488.21 304.499a11.47 11.47 0 0 0-11.489-10.526h-16.218c-.868-27.747-23.711-50.052-51.665-50.052-4.016 0-7.927.46-11.682 1.331v-55.293zM189.491 46.218a7.5 7.5 0 0 0 9.244 5.199 7.5 7.5 0 0 0 5.199-9.244 54 54 0 0 1-1.483-7.126h107.094C305.884 61.322 283.267 81.611 256 81.611a53.93 53.93 0 0 1-36.33-14.025 7.5 7.5 0 0 0-10.084 11.106A68.9 68.9 0 0 0 256 96.612c35.548 0 64.91-26.997 68.66-61.564h10.052c-3.79 40.092-37.644 71.564-78.711 71.564S181.079 75.14 177.29 35.048h10.051a69 69 0 0 0 2.15 11.17m18.843 270.191c18.101 10.095 30.371 29.439 30.371 51.596v40.72l-11.946 1.863V373.8c0-20.588-5.936-41.45-18.425-57.391m-50.066-22.436h-28.424v-4.367a5.664 5.664 0 0 1 5.658-5.658h17.106a5.665 5.665 0 0 1 5.659 5.658v4.367zM49.405 368.005c0-22.156 12.27-41.501 30.371-51.596-12.495 15.949-18.425 36.816-18.425 57.391v36.787l-11.946-1.863zm223.356 88.29c-1.016 3.918-3.982 6.776-7.937 7.645-79.008 17.355-162.53 17.355-241.538 0-3.954-.868-6.921-3.727-7.937-7.645-1.015-3.918.189-7.857 3.224-10.537l25.657-22.66 17.659 2.753a536 536 0 0 0 31.278 3.935c4.11.395 7.786-2.626 8.182-6.75a7.5 7.5 0 0 0-6.75-8.182 520 520 0 0 1-18.247-2.078V373.8c0-35.746 20.522-64.827 45.748-64.827h43.911c25.226 0 45.748 29.081 45.748 64.827v38.977a520 520 0 0 1-82.271 4.238c-4.182-.098-7.591 3.146-7.708 7.286a7.5 7.5 0 0 0 7.286 7.708 534.7 534.7 0 0 0 97.157-6.157l17.658-2.753 25.657 22.66c1.9 1.678 3.082 3.85 3.452 6.201q.016.126.036.252a10.7 10.7 0 0 1-.265 4.083m136.077-197.374c19.682 0 35.793 15.578 36.654 35.052h-48.335v-33.145a36.5 36.5 0 0 1 11.681-1.907m-36.654 35.052c.401-9.083 4.12-17.318 9.972-23.521v23.521zm-15.011 0h-16.218a11.47 11.47 0 0 0-11.489 10.528l-3.657 41.799a7.5 7.5 0 0 0 6.818 8.125c4.1.353 7.764-2.69 8.125-6.818l3.38-38.634h129.412l14.427 164.906H329.704l1.934-22.099.017-.193 5.9-67.434a7.5 7.5 0 0 0-6.818-8.125c-4.095-.358-7.764 2.691-8.125 6.818l-5.308 60.673H286.02a25.6 25.6 0 0 0-6.553-9.004l-25.762-22.752v-43.759c0-40.821-33.211-74.032-74.032-74.032h-6.405v-4.367c0-11.391-9.268-20.658-20.659-20.658h-17.106c-1.961 0-3.859.275-5.658.788V95.918c0-4.143-3.357-7.5-7.5-7.5s-7.5 3.357-7.5 7.5v73.477a10.3 10.3 0 0 0-2.478 1.828L78.52 205.071l-61.547-61.547L95.948 64.55c17.858-17.858 41.24-28.185 66.293-29.385 3.891 48.318 44.456 86.446 93.759 86.446s89.868-38.128 93.759-86.446c25.053 1.199 48.436 11.526 66.293 29.385l78.976 78.975-61.547 61.547-33.849-33.85a10.3 10.3 0 0 0-2.476-1.826V95.918c0-4.143-3.357-7.5-7.5-7.5s-7.5 3.357-7.5 7.5v155.436c-14.539 8.798-24.417 24.555-24.983 42.619"/></svg>