<svg viewBox="0 0 74 74" xmlns="http://www.w3.org/2000/svg" xmlns:xlink="http://www.w3.org/1999/xlink"><path d="M60.651 72h-45a3 3 0 0 1-3-3V5a3 3 0 0 1 3-3h45a6.006 6.006 0 0 1 6 6v58a6.006 6.006 0 0 1-6 6m-45-68a1 1 0 0 0-1 1v64a1 1 0 0 0 1 1h45a4 4 0 0 0 4-4V8a4 4 0 0 0-4-4z"/><path d="M25.65 32.56a1 1 0 0 1-1-1V3a1 1 0 0 1 2 0v28.56a1 1 0 0 1-1 1"/><path d="M25.65 52.44a1 1 0 0 1-1-1v-2.97a1 1 0 0 1 2 0v2.97a1 1 0 0 1-1 1"/><path d="M25.65 72a1 1 0 0 1-1-1V58.44a1 1 0 0 1 2 0V71a1 1 0 0 1-1 1"/><path d="M25.65 42.47a1 1 0 0 1-1-1v-2.91a1 1 0 0 1 2 0v2.91a1 1 0 0 1-1 1"/><path d="M13.651 18.544c-3.534 0-6.3-1.732-6.3-3.943s2.768-3.945 6.3-3.945a1 1 0 0 1 0 2c-2.626 0-4.3 1.152-4.3 1.945s1.676 1.943 4.3 1.943 4.3-1.151 4.3-1.943a1 1 0 1 1 2 0c.004 2.211-2.765 3.943-6.3 3.943"/><path d="M13.651 29.745c-3.534 0-6.3-1.733-6.3-3.945s2.768-3.944 6.3-3.944a1 1 0 1 1 0 2c-2.626 0-4.3 1.151-4.3 1.944s1.676 1.945 4.3 1.945 4.3-1.152 4.3-1.945a1 1 0 1 1 2 0c.004 2.212-2.765 3.945-6.3 3.945"/><path d="M13.651 40.944c-3.534 0-6.3-1.732-6.3-3.944s2.768-3.944 6.3-3.944a1 1 0 0 1 0 2c-2.626 0-4.3 1.151-4.3 1.944s1.676 1.944 4.3 1.944 4.3-1.151 4.3-1.944a1 1 0 0 1 2 0c.004 2.212-2.765 3.944-6.3 3.944"/><path d="M13.651 52.144c-3.534 0-6.3-1.732-6.3-3.944s2.768-3.945 6.3-3.945a1 1 0 1 1 0 2c-2.626 0-4.3 1.152-4.3 1.945s1.676 1.944 4.3 1.944 4.3-1.151 4.3-1.944a1 1 0 0 1 2 0c.004 2.212-2.765 3.944-6.3 3.944"/><path d="M13.651 63.344c-3.534 0-6.3-1.733-6.3-3.945s2.768-3.943 6.3-3.943a1 1 0 0 1 0 2c-2.626 0-4.3 1.151-4.3 1.943s1.676 1.945 4.3 1.945 4.3-1.152 4.3-1.945a1 1 0 0 1 2 0c.004 2.212-2.765 3.945-6.3 3.945"/><path d="M57.208 19H34.1a1 1 0 0 1 0-2h23.108a1 1 0 0 1 0 2"/><path d="M57.208 26H34.1a1 1 0 0 1 0-2h23.108a1 1 0 0 1 0 2"/><path d="M57.208 33H34.1a1 1 0 0 1 0-2h23.108a1 1 0 0 1 0 2"/></svg>