<svg viewBox="0 0 33 30" xmlns="http://www.w3.org/2000/svg"><g><path d="m24.49 4.898-8.143.612V0l2.204 2.327L20.388 0l2.081 2.388L24.49 0z"/><path d="M28.592 21.857H24.49v-4.653h.735l6.244-5.633v-4.04c-.183-.123-.367-.123-.612-.184l-2.326 2.082-4.102 3.673V5.51h-8.082V30h16.347v-4.102c-.061-2.204-1.898-4.04-4.102-4.04"/><path d="M24.49 4.898v16.47c0 .795-.612 1.408-1.408 1.408h-6.735V5.51z"/><path d="M21.184 11.327h-4.837v-1.225h5.633z"/><path d="M20.51 11.571h-1.959v1.96h1.96z"/><path d="M21.306 17.755h-4.96v1.53h4.96z"/><path d="M20.816 18.061h-1.898v-2.694l1.898 1.347z"/><path d="M26.939 27.306h-1.347V30h1.347z"/><path d="M17.694 28.04h-1.347V30h1.347z"/><path d="m8.143 4.898 8.204.612V0l-2.204 2.327L12.245 0l-2.082 2.388L8.143 0z"/><path d="M4.102 21.857h4.102v-4.653H7.47l-6.306-5.633v-4.04c.184-.123.368-.123.613-.184l2.326 2.082 4.102 3.673V5.51h8.143V30H0v-4.102c0-2.204 1.837-4.04 4.102-4.04"/><path d="M8.143 4.898v16.47c0 .795.612 1.408 1.408 1.408h6.735V5.51z"/><path d="M11.449 11.327h4.898v-1.225h-5.694z"/><path d="M12.19 13.535h1.959v-1.959h-1.96z"/><path d="M11.38 19.286h4.96v-1.53h-4.96z"/><path d="M11.816 18.061h1.898v-2.694l-1.898 1.347z"/><path d="M5.689 30.015h1.347v-2.694H5.689z"/><path d="M14.99 30.019h1.347v-1.96H14.99z"/></g></svg>