<svg viewBox="0 0 511.949 511.949" xmlns="http://www.w3.org/2000/svg" xmlns:xlink="http://www.w3.org/1999/xlink"><path d="M340.002 181.678c-6.893.188-12.07-7.53-9.229-13.83 2.869-7.294 13.307-8.307 17.55-1.72 1.44 2.186 2.021 4.936 1.479 7.5-.824 4.584-5.161 8.108-9.8 8.05"/><path d="M502.689 37.279 474.293 8.855l-.106-.104C462.246-2.85 442.401-2.926 429.95 8.578q-.147.136-.288.277l-22.173 22.193-2.856-2.859a10.003 10.003 0 0 0-14.148 0L43.143 375.851a24.7 24.7 0 0 0-6.768 12.659l-.035.102L.525 498.858a10.001 10.001 0 0 0 12.605 12.6l110.133-35.843c4.808-.933 9.228-3.273 12.767-6.815l293.916-294.186 3.092 3.095c5.17 5.175 5.17 13.595 0 18.77L270.55 359.115c-3.903 3.907-3.9 10.239.007 14.142a9.97 9.97 0 0 0 7.067 2.926 9.97 9.97 0 0 0 7.074-2.932l162.488-162.638c12.957-12.969 12.957-34.072 0-47.041l-3.104-3.107 39.291-39.327c3.901-3.904 3.901-10.231 0-14.136l-2.869-2.871 22.185-22.206c12.298-12.309 12.298-32.337 0-44.646M76.772 469.712l-34.523-34.556 6.155-18.946 47.298 47.341zM35.311 456.51l20.127 20.145-29.824 9.707zm86.571-1.846c-1.224 1.225-2.652 1.408-3.395 1.408s-2.17-.183-3.395-1.408L57.29 396.809a4.83 4.83 0 0 1 0-6.821l32.707-32.738 64.604 64.663zm46.856-46.9-25.234-25.257 179.142-179.306c3.903-3.907 3.9-10.239-.007-14.142-3.907-3.904-10.24-3.901-14.142.006L129.368 368.358 104.135 343.1 351.207 95.802l64.603 64.663zm261.208-261.448-64.603-64.663 32.216-32.247 64.604 64.664zm58.595-78.527-22.172 22.193-44.744-44.785 22.023-22.043c4.689-4.212 12.219-4.266 16.558-.101l28.335 28.361c4.511 4.515 4.511 11.86 0 16.375"/></svg>