<svg viewBox="0 0 40 40" xmlns="http://www.w3.org/2000/svg"><g><path d="M20 39.667a19.667 19.667 0 0 0 19.66-19.16 20 20 0 0 0 .007-.506A19.667 19.667 0 0 0 20.507.34 20 20 0 0 0 20 .334 19.667 19.667 0 0 0 .34 19.493 20 20 0 0 0 .333 20a19.667 19.667 0 0 0 19.16 19.66 20 20 0 0 0 .507.007m0-2a17.667 17.667 0 0 0 17.66-17.21 18 18 0 0 0 .007-.457 17.667 17.667 0 0 0-17.21-17.66A18 18 0 0 0 20 2.333a17.667 17.667 0 0 0-17.66 17.21 18 18 0 0 0-.007.456 17.667 17.667 0 0 0 17.21 17.661 18 18 0 0 0 .457.006Z" fill-rule="evenodd"/><path d="M31.533 25.22v3.174a3.106 3.106 0 0 1-3.139 3.14h-.127a1 1 0 0 1-.116-.007 22.75 22.75 0 0 1-9.484-3.347l-.005-.003a21.9 21.9 0 0 1-6.704-6.703 21.56 21.56 0 0 1-3.347-9.579 2.5 2.5 0 0 1-.057-.532l.004-.082a3.07 3.07 0 0 1 2.836-2.812l.073-.002H14.8a3.155 3.155 0 0 1 3.123 2.732l.002.013a9.6 9.6 0 0 0 .724 2.656l.03.075a3.4 3.4 0 0 1 .182 1.072v.016a3.1 3.1 0 0 1-.965 2.22l-.769.769a16.3 16.3 0 0 0 4.986 4.985l.779-.779.019-.018a3.32 3.32 0 0 1 2.295-.912h.061a3 3 0 0 1 .911.154l.077.03a10 10 0 0 0 1.332.453h.003a12 12 0 0 0 1.332.274 2.923 2.923 0 0 1 2.61 3.013m-2-.02v3.213a1.106 1.106 0 0 1-1.12 1.12h-.087a20.75 20.75 0 0 1-8.59-3.044 19.9 19.9 0 0 1-6.093-6.093l-.003-.005a19.56 19.56 0 0 1-3.045-8.753 1 1 0 0 0-.025-.148 1 1 0 0 1-.015-.09 1.07 1.07 0 0 1 .954-.933h3.29a1.155 1.155 0 0 1 1.143.996 11.6 11.6 0 0 0 .856 3.16 1.4 1.4 0 0 1 .064.399 1.1 1.1 0 0 1-.346.782l-.023.022-1.333 1.334a1 1 0 0 0-.16 1.205 18.34 18.34 0 0 0 6.769 6.769 1 1 0 0 0 1.205-.16l1.323-1.323a1.32 1.32 0 0 1 .905-.355h.032a1 1 0 0 1 .288.044 12 12 0 0 0 1.555.527 14 14 0 0 0 1.58.323l.046.005a.923.923 0 0 1 .831.96z" fill-rule="evenodd"/></g></svg>