<svg viewBox="0 0 40 40" xmlns="http://www.w3.org/2000/svg"><g><path d="M20 39.667a19.667 19.667 0 0 0 19.66-19.16 20 20 0 0 0 .007-.506A19.667 19.667 0 0 0 20.507.34 20 20 0 0 0 20 .334 19.667 19.667 0 0 0 .34 19.493 20 20 0 0 0 .333 20a19.667 19.667 0 0 0 19.16 19.66 20 20 0 0 0 .507.007m0-2a17.667 17.667 0 0 0 17.66-17.21 18 18 0 0 0 .007-.457 17.667 17.667 0 0 0-17.21-17.66A18 18 0 0 0 20 2.333a17.667 17.667 0 0 0-17.66 17.21 18 18 0 0 0-.007.456 17.667 17.667 0 0 0 17.21 17.661 18 18 0 0 0 .457.006Z" fill-rule="evenodd"/><path d="M28.533 8.267 5.333 18s-1.066.4-1.066 1.067c.133.8 1.066 1.067 1.066 1.067l5.867 2.133s1.733 6.133 2.133 7.333.667 1.2.667 1.2c.267.134.667-.133.667-.133l3.733-3.6 5.867 4.8c1.6.8 2.133-.8 2.133-.8l4.133-22c-.133-1.6-2-.8-2-.8M24.4 29.2l-6.267-5.066-2 1.866.4-4 8.4-7.866-11.466 6.8L8.4 19.067l19.333-8z"/></g></svg>