<svg viewBox="0 0 512 512" xmlns="http://www.w3.org/2000/svg" xmlns:xlink="http://www.w3.org/1999/xlink"><path d="M437.019 77.789c-48.301-48.3-112.505-74.92-180.805-74.975-.071 0-.142-.005-.213-.005-.061 0-.122.004-.182.004-58.19.04-113.012 19.102-158.552 55.137a7.5 7.5 0 1 0 9.308 11.763c28.892-22.862 61.76-38.455 96.89-46.21-15.63 13.013-29.885 31.944-42.031 56.236-21.618 43.235-34.474 99.184-36.797 159.257-14.598-12.992-34.302-20.584-55.016-20.584-20.107 0-39.271 7.155-53.729 19.463 4.814-56.253 28.983-108.555 69.266-149.044a7.501 7.501 0 0 0-10.634-10.579C26.466 126.556 0 190.68 0 258.811a7.502 7.502 0 0 0 13.845 4c11.432-18.134 32.804-29.399 55.775-29.399 22.978 0 44.354 11.265 55.785 29.399a7.5 7.5 0 0 0 12.69 0c11.432-18.134 32.804-29.399 55.775-29.399 22.226 0 42.951 10.541 54.63 27.642v93.039c-10.132 3.193-17.5 12.676-17.5 23.849v59.03c0 12.252-9.968 22.22-22.22 22.22-12.253 0-22.221-9.968-22.221-22.22v-26.29c0-13.785-11.215-25-25-25s-25 11.215-25 25v26.29c0 39.822 32.398 72.22 72.221 72.22S281 476.794 281 436.971v-8.4c0-4.142-3.357-7.5-7.5-7.5s-7.5 3.358-7.5 7.5v8.4c0 31.551-25.669 57.22-57.22 57.22-31.552 0-57.221-25.668-57.221-57.22v-26.29c0-5.514 4.486-10 10-10s10 4.486 10 10v26.29c0 20.523 16.697 37.22 37.221 37.22S246 457.494 246 436.971v-59.03c0-5.514 4.486-10 10-10s10 4.486 10 10v20.63c0 4.142 3.357 7.5 7.5 7.5s7.5-3.358 7.5-7.5v-20.63c0-11.173-7.368-20.656-17.5-23.849v-93.039c11.678-17.101 32.4-27.642 54.62-27.642 22.978 0 44.354 11.265 55.785 29.399a7.5 7.5 0 0 0 12.69 0c11.432-18.134 32.804-29.399 55.775-29.399 22.978 0 44.354 11.265 55.785 29.399a7.5 7.5 0 0 0 13.845-4c0-68.381-26.629-132.67-74.981-181.021M193.87 218.411c-20.325 0-39.681 7.313-54.191 19.867 2.367-57.468 14.64-110.769 35.171-151.832 20.291-40.582 46.205-64.431 73.649-68.119v220.32c-14.557-12.782-34.099-20.236-54.629-20.236m124.25 0c-20.525 0-40.064 7.454-54.62 20.235V18.328c27.444 3.688 53.359 27.537 73.649 68.119 20.531 41.062 32.805 94.364 35.171 151.832-14.511-12.555-33.87-19.868-54.2-19.868m124.25 0c-20.708 0-40.411 7.592-55.007 20.583-2.323-60.073-15.179-116.021-36.797-159.256-12.136-24.271-26.377-43.191-41.992-56.203 44.3 9.808 84.978 32.003 117.837 64.861 40.549 40.548 64.869 93.002 69.697 149.48-14.458-12.31-33.625-19.465-53.738-19.465"/></svg>