<svg viewBox="0 0 40 40" xmlns="http://www.w3.org/2000/svg"><g><path d="M28.026 25.352a6.1 6.1 0 0 0 .41-2.025v-.024a2.3 2.3 0 0 0-.137-.882 1 1 0 0 0-.055-.122 1.5 1.5 0 0 0-.812-.697 9 9 0 0 1-.539-.233 48 48 0 0 0-.606-.294l-.883-.421-.011-.006-1.007-.478h-.002l-.563-.27a1 1 0 0 0-.112-.047 2.4 2.4 0 0 0-.52-.113h-.005a2 2 0 0 0-.16-.01 1.53 1.53 0 0 0-1.514.954 26 26 0 0 0-1.023 1.361l-.04-.019a27 27 0 0 1-1.366-.659 12.5 12.5 0 0 1-2.146-1.465 11 11 0 0 1-.753-.753 18 18 0 0 1-1.387-1.751l-.001-.002-.21-.296.389-.388.397-.397a6 6 0 0 0 .268-.28l.01-.011a2.4 2.4 0 0 0 .478-.853 1.5 1.5 0 0 0 .111-.6 2 2 0 0 0-.041-.38l-.002-.009a3 3 0 0 0-.248-.692.93.93 0 0 0-.304-.347.1.1 0 0 1-.03-.036 1 1 0 0 0-.04-.084 10 10 0 0 1-.401-.83l-.004-.009-.162-.376-.037-.088a44 44 0 0 0-.546-1.272l-.006-.014-.027-.057a1.81 1.81 0 0 0-1.736-1.3 1.4 1.4 0 0 0-.604-.111 2.99 2.99 0 0 0-2.44.98l-.052.063-.038.049-.047.057a10 10 0 0 0-.673.862l-.006.009a5.8 5.8 0 0 0-.92 2.243 6.7 6.7 0 0 0-.108 1.222v.032a8.14 8.14 0 0 0 1.073 3.739 10 10 0 0 0 .708 1.123 4 4 0 0 0 .333.411l.024.03.006.008a79 79 0 0 0 .563.76l.002.003a27 27 0 0 0 1.344 1.638 23 23 0 0 0 1.498 1.536 18 18 0 0 0 3.568 2.62l.007.005a14 14 0 0 0 1.203.586l.011.005a29 29 0 0 0 2.297.84 12 12 0 0 0 1.888.45l.009.002a6 6 0 0 0 .826.06h.01a5.6 5.6 0 0 0 .98-.093l.015-.003a6 6 0 0 0 .516-.128 5.27 5.27 0 0 0 3.333-2.62 1 1 0 0 0 .046-.102Zm-1.717-.725a4.3 4.3 0 0 0 .265-1.344v-.02a11 11 0 0 1-.484-.214l-.014-.007a46 46 0 0 0-.59-.286l-.002-.001-.88-.42-.01-.004-1.007-.479-.458-.219a1 1 0 0 1-.066.093 24 24 0 0 0-1.158 1.544 1 1 0 0 1-.125.146 1.95 1.95 0 0 1-1.024.512 2 2 0 0 1-.275.025 1.47 1.47 0 0 1-.902-.276 29 29 0 0 1-1.362-.66l-.014-.007a14.4 14.4 0 0 1-2.485-1.698l-.021-.02a13 13 0 0 1-.896-.893l-.004-.004a20 20 0 0 1-1.53-1.932 31 31 0 0 0-.373-.522 1 1 0 0 1-.066-.105 1.85 1.85 0 0 1-.224-.817v-.069a1.53 1.53 0 0 1 .756-1.259l.296-.296.401-.401.01-.01a4 4 0 0 0 .176-.184.6.6 0 0 0 .114-.21l.011-.038-.018-.066a2 2 0 0 1-.434-.61 12 12 0 0 1-.456-.948l-.17-.393-.04-.095-.003-.009a42 42 0 0 0-.521-1.216l-.047-.097a1 1 0 0 1-.065-.17.93.93 0 0 1-.66-.121l-.01-.001a1.12 1.12 0 0 0-.93.342l-.045.057-.071.088-.015.017a8 8 0 0 0-.554.709 4 4 0 0 0-.624 1.524 5 5 0 0 0-.078.866 6.3 6.3 0 0 0 .83 2.874l.013.022a8 8 0 0 0 .585.929l.006.009a2 2 0 0 0 .192.236l.007.008a2 2 0 0 1 .154.19 77 77 0 0 0 .547.739 25 25 0 0 0 1.248 1.522 21 21 0 0 0 1.38 1.415l.005.004a16 16 0 0 0 3.195 2.347 12 12 0 0 0 1.035.505 28 28 0 0 0 2.148.786l.007.002a10 10 0 0 0 1.587.379 4 4 0 0 0 .563.04 4 4 0 0 0 .641-.06 4 4 0 0 0 .355-.09l.043-.011a3.4 3.4 0 0 0 2.141-1.648" fill-rule="evenodd"/><path d="M16.573 34.51h3.216a35.5 35.5 0 0 0 8.712-.892 13.03 13.03 0 0 0 9.692-8.218l.003-.008a20 20 0 0 0 1.161-5.446 31 31 0 0 0 .103-2.55 26.6 26.6 0 0 0-.539-5.602 14.9 14.9 0 0 0-2.237-5.413l-.032-.044a14.22 14.22 0 0 0-9.858-5.57 41 41 0 0 0-6.857-.494 35.5 35.5 0 0 0-8.705.891A13.03 13.03 0 0 0 1.54 9.382l-.003.008a20 20 0 0 0-1.162 5.447 31 31 0 0 0-.102 2.55 26.5 26.5 0 0 0 .533 5.566 15 15 0 0 0 2.217 5.394l.014.02a12.47 12.47 0 0 0 5.932 4.545v4.81a1.78 1.78 0 0 0 1.855 1.788h.007a1.9 1.9 0 0 0 1.09-.364 1 1 0 0 0 .109-.093zm-.386-1.862h3.632a33.7 33.7 0 0 0 8.28-.848l.03-.006a11.17 11.17 0 0 0 8.318-7.043 18.2 18.2 0 0 0 1.053-4.94v-.012a29 29 0 0 0 .097-2.406v-.012a24.7 24.7 0 0 0-.5-5.216l-.002-.007a13.1 13.1 0 0 0-1.944-4.72 12.36 12.36 0 0 0-8.574-4.821l-.05-.007a39 39 0 0 0-6.582-.475h-.032a33.7 33.7 0 0 0-8.278.848l-.031.006a11.17 11.17 0 0 0-8.319 7.043 18.2 18.2 0 0 0-1.052 4.941l-.001.01a29 29 0 0 0-.097 2.406v.012a24.7 24.7 0 0 0 .497 5.183l.001.007a13.1 13.1 0 0 0 1.935 4.715 10.6 10.6 0 0 0 5.6 4.044.93.93 0 0 1 .663.89v5.378l4.698-4.698a.93.93 0 0 1 .658-.272" fill-rule="evenodd"/><path d="M23.138 16.745a3.674 3.674 0 0 0-3.763-3.763.931.931 0 0 0 .046 1.862 1.81 1.81 0 0 1 1.856 1.856.931.931 0 0 0 1.861.045"/><path d="M30.898 16.728A11.437 11.437 0 0 0 19.392 5.223a.931.931 0 0 0 .012 1.862 9.575 9.575 0 0 1 9.632 9.632.931.931 0 0 0 1.862.011"/><path d="M27.018 16.731a7.555 7.555 0 0 0-7.63-7.629.931.931 0 0 0 .02 1.862 5.693 5.693 0 0 1 5.748 5.749.931.931 0 0 0 1.862.018"/></g></svg>